Coordinates
version=1
nRows=41
nColumns=38
inDegrees=no

Units are S.I. units (second, meters, Newtons, ...)
If the header above contains a line with 'inDegrees', this indicates whether rotational values are in degrees (yes) or radians (no).

endheader
time	pelvis_tilt	pelvis_list	pelvis_rotation	pelvis_tx	pelvis_ty	pelvis_tz	hip_flexion_r	hip_adduction_r	hip_rotation_r	knee_angle_r	ankle_angle_r	subtalar_angle_r	mtp_angle_r	hip_flexion_l	hip_adduction_l	hip_rotation_l	knee_angle_l	ankle_angle_l	subtalar_angle_l	mtp_angle_l	lumbar_extension	lumbar_bending	lumbar_rotation	arm_flex_r	arm_add_r	arm_rot_r	elbow_flex_r	pro_sup_r	wrist_flex_r	wrist_dev_r	arm_flex_l	arm_add_l	arm_rot_l	elbow_flex_l	pro_sup_l	wrist_flex_l	wrist_dev_l
1.62	3.07278	1.27664	-1.40651	0.672497	0.667005	0.950861	-0.523599	0.0878976	-0.159304	0.152371	-0.166921	0	0	0.0889286	-0.0834963	-0.261105	0.336627	-0.279168	0	0	-0.434016	0.0477051	-0.172536	0.375694	-0.290093	0.641765	0.807401	1.35901	0	0	-0.268958	-0.295683	0.0505738	0.946252	1.5708	0	0
1.63	3.06741	1.28337	-1.3978	0.671279	0.676336	0.948941	-0.523599	0.0886634	-0.159685	0.159119	-0.160883	0	0	0.0868885	-0.0737454	-0.243906	0.284818	-0.274556	0	0	-0.427319	0.0497485	-0.171951	0.373673	-0.288492	0.632147	0.810215	1.36593	0	0	-0.267011	-0.293814	0.0522474	0.942476	1.5708	0	0
1.64	3.06294	1.28921	-1.39119	0.670155	0.685813	0.947176	-0.523599	0.0885674	-0.1597	0.167869	-0.155623	0	0	0.0829331	-0.0652723	-0.226765	0.237819	-0.27246	0	0	-0.421399	0.0509146	-0.17011	0.370723	-0.286579	0.622456	0.81252	1.36939	0	0	-0.264912	-0.292216	0.0546064	0.938629	1.5708	0	0
1.65	3.05811	1.29404	-1.38531	0.669183	0.695449	0.945581	-0.523599	0.0878668	-0.160186	0.179782	-0.150685	0	0	0.0777929	-0.0591545	-0.210361	0.198916	-0.274261	0	0	-0.416305	0.0515539	-0.166935	0.367155	-0.284632	0.61332	0.814021	1.37359	0	0	-0.262766	-0.290983	0.0576046	0.934717	1.5708	0	0
1.66	3.05305	1.2978	-1.38043	0.668397	0.705229	0.944176	-0.523599	0.086581	-0.160405	0.19351	-0.146453	0	0	0.0736433	-0.0558723	-0.198757	0.175475	-0.278739	0	0	-0.412463	0.0515665	-0.16144	0.360235	-0.281471	0.59668	0.815883	1.38929	0	0	-0.259772	-0.290331	0.0617952	0.930914	1.5708	0	0
1.67	3.04953	1.30027	-1.37838	0.6677	0.715129	0.94296	-0.523599	0.0843587	-0.159476	0.20746	-0.144021	0	0	0.0720837	-0.0547312	-0.194541	0.173018	-0.282871	0	0	-0.409813	0.0507673	-0.156734	0.356319	-0.279111	0.589519	0.815796	1.39547	0	0	-0.258492	-0.289302	0.0636144	0.928227	1.5708	0	0
1.68	3.04829	1.30245	-1.3793	0.666934	0.725226	0.941909	-0.523599	0.0809594	-0.157942	0.221288	-0.14325	0	0	0.0735506	-0.0544334	-0.19534	0.189341	-0.286604	0	0	-0.40727	0.0491408	-0.151226	0.350661	-0.277069	0.581219	0.816	1.40213	0	0	-0.256975	-0.288469	0.0665535	0.925154	1.5708	0	0
1.69	3.04931	1.30415	-1.38267	0.666077	0.735614	0.941046	-0.523599	0.0763923	-0.157577	0.23644	-0.144148	0	0	0.075717	-0.0542388	-0.198365	0.21752	-0.287524	0	0	-0.404732	0.0468903	-0.145858	0.343972	-0.275543	0.574452	0.816134	1.40598	0	0	-0.255796	-0.287592	0.0696818	0.921622	1.5708	0	0
1.7	3.05247	1.30521	-1.38846	0.665109	0.746337	0.940364	-0.523599	0.0709493	-0.158158	0.253052	-0.146541	0	0	0.0763079	-0.0534389	-0.202516	0.248921	-0.282653	0	0	-0.402243	0.0440962	-0.140708	0.336427	-0.274463	0.569016	0.816167	1.40659	0	0	-0.255269	-0.286469	0.0726149	0.91776	1.5708	0	0
1.71	3.0585	1.30531	-1.39764	0.664032	0.757364	0.939923	-0.523599	0.0642752	-0.159245	0.27107	-0.150175	0	0	0.0733386	-0.0508977	-0.205472	0.273905	-0.276999	0	0	-0.400203	0.0405451	-0.135522	0.328407	-0.274103	0.565067	0.815772	1.40972	0	0	-0.255312	-0.285138	0.0753403	0.913821	1.5708	0	0
1.72	3.06863	1.30545	-1.41113	0.662885	0.768639	0.939704	-0.523599	0.0562122	-0.160004	0.289667	-0.155188	0	0	0.0683533	-0.0458454	-0.206857	0.288917	-0.27924	0	0	-0.397789	0.0356794	-0.130351	0.319081	-0.273822	0.561322	0.814947	1.41324	0	0	-0.255398	-0.283765	0.0781561	0.90925	1.5708	0	0
1.73	3.08261	1.30685	-1.42735	0.661693	0.780053	0.939684	-0.523599	0.0475512	-0.160809	0.308905	-0.162217	0	0	0.063336	-0.0387737	-0.205728	0.294868	-0.293249	0	0	-0.393906	0.0295545	-0.126126	0.308414	-0.272853	0.557165	0.812747	1.41564	0	0	-0.255092	-0.282634	0.0810719	0.903615	1.5708	0	0
1.74	3.09868	1.30896	-1.44526	0.66043	0.791505	0.939859	-0.523599	0.0383201	-0.160428	0.329681	-0.171873	0	0	0.0580809	-0.0315233	-0.205443	0.297168	-0.312987	0	0	-0.389245	0.0228237	-0.121991	0.296785	-0.27162	0.552066	0.809785	1.41675	0	0	-0.253945	-0.281484	0.0844435	0.896729	1.5708	0	0
1.75	3.11461	1.31144	-1.46264	0.659043	0.803077	0.940142	-0.523599	0.0289303	-0.159781	0.352277	-0.183654	0	0	0.0523229	-0.0248596	-0.206976	0.299348	-0.330547	0	0	-0.383927	0.016346	-0.118584	0.284539	-0.270693	0.547836	0.806977	1.41657	0	0	-0.253064	-0.279673	0.0864534	0.889593	1.5708	0	0
1.76	3.12818	1.31332	-1.47719	0.657527	0.814792	0.940523	-0.523599	0.0198915	-0.159738	0.377809	-0.197766	0	0	0.0460497	-0.0198464	-0.210504	0.304261	-0.342148	0	0	-0.378667	0.010888	-0.115917	0.271655	-0.270547	0.545137	0.804927	1.41436	0	0	-0.252952	-0.277699	0.0880173	0.883097	1.5708	0	0
1.77	3.138	1.31408	-1.48744	0.655889	0.826594	0.941032	-0.523599	0.0113777	-0.160652	0.406971	-0.21438	0	0	0.0395672	-0.0172992	-0.215407	0.313441	-0.349282	0	0	-0.374087	0.00693631	-0.11446	0.259455	-0.271587	0.545955	0.803008	1.41383	0	0	-0.253995	-0.27539	0.0885247	0.877815	1.5708	0	0
1.78	-3.13827	1.31319	-1.49406	0.654177	0.838325	0.941774	-0.523599	0.00307978	-0.161988	0.439603	-0.233285	0	0	0.0324978	-0.0168457	-0.22098	0.326663	-0.35472	0	0	-0.371287	0.00418454	-0.11436	0.248353	-0.273077	0.548827	0.800913	1.41499	0	0	-0.255713	-0.272872	0.0877469	0.873908	1.5708	0	0
1.79	-3.13189	1.31067	-1.49948	0.652425	0.849911	0.942825	-0.523599	-0.00556121	-0.164354	0.476273	-0.255387	0	0	0.0234192	-0.0167957	-0.225195	0.339599	-0.359362	0	0	-0.370588	0.00202661	-0.115512	0.237904	-0.274512	0.552714	0.798769	1.41569	0	0	-0.257348	-0.270243	0.0859285	0.870766	1.5708	0	0
1.8	-3.12386	1.30675	-1.50581	0.650559	0.861282	0.944189	-0.523599	-0.0150236	-0.16776	0.516945	-0.279518	0	0	0.0115299	-0.0156026	-0.226709	0.349248	-0.36046	0	0	-0.371672	7.74767e-05	-0.117945	0.228375	-0.275774	0.55744	0.796115	1.41528	0	0	-0.257994	-0.268633	0.0860856	0.867409	1.5708	0	0
1.81	-3.11333	1.30168	-1.51369	0.648495	0.872472	0.945789	-0.523599	-0.025969	-0.173937	0.562197	-0.309057	0	0	-0.00257457	-0.0131266	-0.227724	0.35693	-0.35686	0	0	-0.374294	-0.00182124	-0.122016	0.219928	-0.277709	0.564519	0.793648	1.41394	0	0	-0.257847	-0.267506	0.0873661	0.864252	1.5708	0	0
1.82	-3.101	1.29891	-1.52299	0.646357	0.883453	0.947325	-0.511127	-0.0381807	-0.180582	0.61193	-0.349216	0	0	-0.0144801	-0.00935652	-0.228688	0.36425	-0.350132	0	0	-0.374838	-0.00414067	-0.127511	0.214043	-0.280747	0.577504	0.790091	1.41088	0	0	-0.25716	-0.266824	0.0898568	0.860686	1.5708	0	0
1.83	-3.08793	1.2989	-1.53392	0.644498	0.894161	0.948679	-0.48806	-0.0507541	-0.18379	0.665311	-0.390524	0	0	-0.0238762	-0.00495913	-0.230296	0.371242	-0.342716	0	0	-0.372434	-0.00730738	-0.133102	0.210424	-0.28338	0.59447	0.784268	1.40779	0	0	-0.256051	-0.26712	0.0937163	0.856848	1.5708	0	0
1.84	-3.07341	1.29893	-1.5471	0.642828	0.904619	0.94993	-0.461724	-0.0643364	-0.185835	0.720806	-0.432516	0	0	-0.0346052	0.000102203	-0.232963	0.376305	-0.334873	0	0	-0.370309	-0.0111515	-0.138981	0.207757	-0.285796	0.612388	0.779177	1.40435	0	0	-0.255354	-0.268589	0.0982045	0.855148	1.5708	0	0
1.85	-3.05783	1.29874	-1.56169	0.641125	0.914847	0.951025	-0.43352	-0.0789085	-0.187484	0.778161	-0.46824	0	0	-0.0471907	0.00594651	-0.235777	0.378671	-0.326754	0	0	-0.368877	-0.0151134	-0.145381	0.20572	-0.289105	0.630487	0.776318	1.40317	0	0	-0.254943	-0.270601	0.102807	0.855732	1.5708	0	0
1.86	-3.0418	1.29985	-1.57676	0.639324	0.924872	0.951852	-0.40255	-0.0938218	-0.188756	0.837408	-0.497714	0	0	-0.0593407	0.0123065	-0.238239	0.378839	-0.318108	0	0	-0.366145	-0.0188834	-0.152626	0.204645	-0.293212	0.650185	0.774589	1.40155	0	0	-0.254439	-0.273169	0.108462	0.857448	1.5708	0	0
1.87	-3.02713	1.30164	-1.59028	0.637611	0.934591	0.952503	-0.369539	-0.108077	-0.189236	0.897976	-0.519459	0	0	-0.0708398	0.017848	-0.241118	0.377441	-0.310829	0	0	-0.363155	-0.0221722	-0.160386	0.20419	-0.297296	0.668602	0.773892	1.40122	0	0	-0.253531	-0.276578	0.114471	0.860683	1.5708	0	0
1.88	-3.0155	1.30436	-1.60064	0.63608	0.944022	0.953094	-0.334467	-0.120904	-0.188143	0.957444	-0.540795	0	0	-0.0810444	0.0218835	-0.242819	0.374561	-0.30476	0	0	-0.359317	-0.024444	-0.16862	0.205085	-0.300644	0.687337	0.772409	1.39961	0	0	-0.251639	-0.280541	0.121175	0.864075	1.5708	0	0
1.89	-3.00865	1.30679	-1.6065	0.634747	0.953227	0.953797	-0.299576	-0.131497	-0.185919	1.01369	-0.560473	0	0	-0.0919191	0.0244042	-0.241091	0.368695	-0.300719	0	0	-0.356045	-0.0253225	-0.176634	0.20723	-0.303575	0.705743	0.770558	1.39705	0	0	-0.248497	-0.284685	0.128338	0.867107	1.5708	0	0
1.9	-3.0071	1.30887	-1.60732	0.633509	0.962237	0.954626	-0.265167	-0.140238	-0.183772	1.06671	-0.570421	0	0	-0.103519	0.0253213	-0.237434	0.360522	-0.298534	0	0	-0.353447	-0.024616	-0.184128	0.209627	-0.306366	0.722348	0.768919	1.39294	0	0	-0.243808	-0.288862	0.136229	0.869259	1.5708	0	0
1.91	-3.00924	1.31115	-1.60499	0.632294	0.971121	0.955531	-0.231007	-0.147736	-0.181372	1.11569	-0.563569	0	0	-0.115261	0.0254402	-0.232951	0.35097	-0.297472	0	0	-0.350607	-0.022804	-0.190413	0.211879	-0.309657	0.73689	0.767653	1.38828	0	0	-0.237205	-0.29277	0.145408	0.869717	1.5708	0	0
1.92	-3.01224	1.31568	-1.60119	0.631009	0.979827	0.956344	-0.194909	-0.154393	-0.179308	1.16087	-0.537062	0	0	-0.1239	0.0251668	-0.228744	0.342818	-0.296491	0	0	-0.344868	-0.0202057	-0.195836	0.213821	-0.313531	0.750957	0.765935	1.37733	0	0	-0.227524	-0.297305	0.158902	0.866965	1.5708	0	0
1.93	-3.01991	1.31715	-1.59121	0.629668	0.988199	0.957385	-0.163563	-0.158871	-0.17881	1.19872	-0.512416	0	0	-0.135527	0.0236157	-0.223916	0.335859	-0.29476	0	0	-0.343735	-0.0158056	-0.202593	0.214482	-0.316738	0.757014	0.766691	1.36871	0	0	-0.217384	-0.301656	0.169791	0.866611	1.5708	0	0
1.94	-3.02992	1.31858	-1.57879	0.628407	0.996593	0.958422	-0.133113	-0.16203	-0.178613	1.23131	-0.4857	0	0	-0.147732	0.0215633	-0.219406	0.328921	-0.292086	0	0	-0.342181	-0.0107596	-0.208744	0.214314	-0.320318	0.761045	0.76796	1.35982	0	0	-0.206252	-0.306305	0.182115	0.865693	1.5708	0	0
1.95	-3.04188	1.31983	-1.56418	0.627175	1.00497	0.959413	-0.103627	-0.163847	-0.178496	1.25812	-0.462949	0	0	-0.160173	0.0189939	-0.215852	0.322458	-0.288777	0	0	-0.340633	-0.00516727	-0.214528	0.21293	-0.324056	0.76211	0.770058	1.34992	0	0	-0.194596	-0.311158	0.194493	0.865275	1.5708	0	0
1.96	-3.05499	1.32087	-1.54777	0.625922	1.01329	0.960344	-0.0752388	-0.164786	-0.17893	1.27882	-0.444543	0	0	-0.172173	0.0157876	-0.214	0.317055	-0.28545	0	0	-0.33906	0.000803504	-0.220051	0.210524	-0.328256	0.760858	0.772828	1.33979	0	0	-0.182307	-0.316248	0.207022	0.865272	1.5708	0	0
1.97	-3.06968	1.3225	-1.53027	0.624719	1.02163	0.961162	-0.0470016	-0.164676	-0.178333	1.29334	-0.429228	0	0	-0.183083	0.0120414	-0.213534	0.312196	-0.282285	0	0	-0.336598	0.00704547	-0.224407	0.206919	-0.332515	0.756701	0.776052	1.32849	0	0	-0.16937	-0.321092	0.21979	0.864981	1.5708	0	0
1.98	-3.08806	1.32264	-1.50982	0.623709	1.02992	0.962033	-0.0213514	-0.162524	-0.176911	1.30124	-0.416076	0	0	-0.196104	0.00767486	-0.208712	0.305388	-0.279043	0	0	-0.335584	0.0139854	-0.227174	0.202919	-0.337065	0.750904	0.779799	1.31702	0	0	-0.155685	-0.32609	0.232582	0.865231	1.5708	0	0
1.99	-3.10829	1.32149	-1.48817	0.62288	1.03808	0.962918	0.0022222	-0.15896	-0.174893	1.30351	-0.403328	0	0	-0.210281	0.00247104	-0.203804	0.297989	-0.276351	0	0	-0.336113	0.0212155	-0.228472	0.198451	-0.341598	0.743218	0.783867	1.30459	0	0	-0.141321	-0.331031	0.244585	0.866348	1.5708	0	0
2	-3.12763	1.32058	-1.4675	0.622051	1.04614	0.963696	0.0250854	-0.155109	-0.172855	1.30104	-0.389368	0	0	-0.223164	-0.00323972	-0.202501	0.292184	-0.274371	0	0	-0.33666	0.0282285	-0.229055	0.19383	-0.346343	0.734619	0.787848	1.29296	0	0	-0.126413	-0.335296	0.255234	0.867695	1.5708	0	0
2.01	3.13677	1.32061	-1.44541	0.620989	1.05417	0.964355	0.0468962	-0.151323	-0.173456	1.29344	-0.373744	0	0	-0.233899	-0.00937827	-0.201455	0.288177	-0.272486	0	0	-0.336257	0.0356635	-0.230744	0.188367	-0.350704	0.724001	0.791118	1.28167	0	0	-0.111022	-0.338504	0.264542	0.868528	1.5708	0	0
2.02	3.11747	1.31984	-1.42068	0.619728	1.06212	0.965017	0.0656396	-0.147167	-0.177072	1.28019	-0.357302	0	0	-0.245198	-0.0158464	-0.196335	0.284058	-0.270041	0	0	-0.336732	0.0439999	-0.233667	0.182555	-0.354638	0.711786	0.793856	1.27074	0	0	-0.0951114	-0.340905	0.272403	0.869365	1.5708	0	0
